[Header]
FileType HTR
DataType HTRS
FileVersion 1
NumSegments 64
NumFrames 4
DataFrameRate 30
EulerRotationOrder ZYX
CalibrationUnits mm
RotationUnits Degrees
GlobalAxisofGravity Y
BoneLengthAxis Y
ScaleFactor 1.0
[SegmentNames&Hierarchy]
Hips	GLOBAL
Spine	Hips
Spine1	Spine
Spine2	Spine1
Neck	Spine2
Head	Neck
LeftEye	Head
RightEye	Head
LeftShoulder	Spine2
LeftArm	LeftShoulder
LeftForeArm	LeftArm
LeftHand	LeftForeArm
LeftHandThumb1	LeftHand
LeftHandThumb2	LeftHandThumb1
LeftHandThumb3	LeftHandThumb2
LeftHandThumb4	LeftHandThumb3
LeftHandIndex1	LeftHand
LeftHandIndex2	LeftHandIndex1
LeftHandIndex3	LeftHandIndex2
LeftHandIndex4	LeftHandIndex3
LeftHandMiddle1	LeftHand
LeftHandMiddle2	LeftHandMiddle1
LeftHandMiddle3	LeftHandMiddle2
LeftHandMiddle4	LeftHandMiddle3
LeftHandRing1	LeftHand
LeftHandRing2	LeftHandRing1
LeftHandRing3	LeftHandRing2
LeftHandRing4	LeftHandRing3
LeftHandPinky1	LeftHand
LeftHandPinky2	LeftHandPinky1
LeftHandPinky3	LeftHandPinky2
LeftHandPinky4	LeftHandPinky3
RightShoulder	Spine2
RightArm	RightShoulder
RightForeArm	RightArm
RightHand	RightForeArm
RightHandPinky1	RightHand
RightHandPinky2	RightHandPinky1
RightHandPinky3	RightHandPinky2
RightHandPinky4	RightHandPinky3
RightHandRing1	RightHand
RightHandRing2	RightHandRing1
RightHandRing3	RightHandRing2
RightHandRing4	RightHandRing3
RightHandMiddle1	RightHand
RightHandMiddle2	RightHandMiddle1
RightHandMiddle3	RightHandMiddle2
RightHandMiddle4	RightHandMiddle3
RightHandIndex1	RightHand
RightHandIndex2	RightHandIndex1
RightHandIndex3	RightHandIndex2
RightHandIndex4	RightHandIndex3
RightHandThumb1	RightHand
RightHandThumb2	RightHandThumb1
RightHandThumb3	RightHandThumb2
RightHandThumb4	RightHandThumb3
LeftUpLeg	Hips
LeftLeg	LeftUpLeg
LeftFoot	LeftLeg
LeftToeBase	LeftFoot
RightUpLeg	Hips
RightLeg	RightUpLeg
RightFoot	RightLeg
RightToeBase	RightFoot
[BasePosition]
Hips	0	0	0	0	0	0	1
Spine	0	0	0	0	0	0	1
Spine1	0	0	0	0	0	0	1
Spine2	0	0	0	0	0	0	1
Neck	0	0	0	0	0	0	1
Head	0	0	0	0	0	0	1
LeftEye	0	0	0	0	0	0	1
RightEye	0	0	0	0	0	0	1
LeftShoulder	0	0	0	0	0	0	1
LeftArm	0	0	0	0	0	0	1
LeftForeArm	0	0	0	0	0	0	1
LeftHand	0	0	0	0	0	0	1
LeftHandThumb1	0	0	0	0	0	0	1
LeftHandThumb2	0	0	0	0	0	0	1
LeftHandThumb3	0	0	0	0	0	0	1
LeftHandThumb4	0	0	0	0	0	0	1
LeftHandIndex1	0	0	0	0	0	0	1
LeftHandIndex2	0	0	0	0	0	0	1
LeftHandIndex3	0	0	0	0	0	0	1
LeftHandIndex4	0	0	0	0	0	0	1
LeftHandMiddle1	0	0	0	0	0	0	1
LeftHandMiddle2	0	0	0	0	0	0	1
LeftHandMiddle3	0	0	0	0	0	0	1
LeftHandMiddle4	0	0	0	0	0	0	1
LeftHandRing1	0	0	0	0	0	0	1
LeftHandRing2	0	0	0	0	0	0	1
LeftHandRing3	0	0	0	0	0	0	1
LeftHandRing4	0	0	0	0	0	0	1
LeftHandPinky1	0	0	0	0	0	0	1
LeftHandPinky2	0	0	0	0	0	0	1
LeftHandPinky3	0	0	0	0	0	0	1
LeftHandPinky4	0	0	0	0	0	0	1
RightShoulder	0	0	0	0	0	0	1
RightArm	0	0	0	0	0	0	1
RightForeArm	0	0	0	0	0	0	1
RightHand	0	0	0	0	0	0	1
RightHandPinky1	0	0	0	0	0	0	1
RightHandPinky2	0	0	0	0	0	0	1
RightHandPinky3	0	0	0	0	0	0	1
RightHandPinky4	0	0	0	0	0	0	1
RightHandRing1	0	0	0	0	0	0	1
RightHandRing2	0	0	0	0	0	0	1
RightHandRing3	0	0	0	0	0	0	1
RightHandRing4	0	0	0	0	0	0	1
RightHandMiddle1	0	0	0	0	0	0	1
RightHandMiddle2	0	0	0	0	0	0	1
RightHandMiddle3	0	0	0	0	0	0	1
RightHandMiddle4	0	0	0	0	0	0	1
RightHandIndex1	0	0	0	0	0	0	1
RightHandIndex2	0	0	0	0	0	0	1
RightHandIndex3	0	0	0	0	0	0	1
RightHandIndex4	0	0	0	0	0	0	1
RightHandThumb1	0	0	0	0	0	0	1
RightHandThumb2	0	0	0	0	0	0	1
RightHandThumb3	0	0	0	0	0	0	1
RightHandThumb4	0	0	0	0	0	0	1
LeftUpLeg	0	0	0	0	0	0	1
LeftLeg	0	0	0	0	0	0	1
LeftFoot	0	0	0	0	0	0	1
LeftToeBase	0	0	0	0	0	0	1
RightUpLeg	0	0	0	0	0	0	1
RightLeg	0	0	0	0	0	0	1
RightFoot	0	0	0	0	0	0	1
RightToeBase	0	0	0	0	0	0	1
[Hips]
10 	4.181175232	1034.123413	8.339562416	-5.636907101	-4.727293968	-3.547700882	1.0
11 	3.873145342	1033.490967	8.110104561	-6.21073103	-4.127155304	-3.700387955	1.0
12 	3.23472476	1031.945068	7.986446381	-6.930816174	-3.340774536	-3.961242914	1.0
13 	2.447551727	1029.879517	7.909798622	-7.720116138	-2.472046852	-4.269986153	1.0
[Spine]
10 	0	101.8159943	1.315000057	3.277599573	1.447727442	2.807944059	1.0
11 	0	101.8159943	1.315000057	3.212846518	1.464113355	2.770116568	1.0
12 	0	101.8159943	1.315000057	3.152312994	1.48658824	2.728876829	1.0
13 	0	101.8159943	1.315000057	3.093353987	1.512687564	2.684677124	1.0
[Spine1]
10 	0	100.8349991	-10.00800037	0.8149914742	0.4087353945	1.528438807	1.0
11 	0	100.8349991	-10.00800037	0.7271410227	0.4352941215	1.465969801	1.0
12 	0	100.8349991	-10.00800037	0.6663827896	0.4729927778	1.394976974	1.0
13 	0	100.8349991	-10.00800037	0.6191839576	0.5170550942	1.319211483	1.0
[Spine2]
10 	0	91	-13.73399925	0.7872319818	0.4340561032	1.534689426	1.0
11 	0	91	-13.73399925	0.6994367242	0.4614257514	1.472308993	1.0
12 	0	91	-13.73399925	0.6389182806	0.4996635914	1.40115881	1.0
13 	0	91	-13.73399925	0.5920593739	0.5441356897	1.325106382	1.0
[Neck]
10 	0	166.7169952	-25.16200066	8.329697609	0.4517132044	0.2488222718	1.0
11 	0	166.7169952	-25.16200066	8.924427032	0.3924849927	0.4133483469	1.0
12 	0	166.7169952	-25.16200066	9.58180809	0.2231141478	0.6790430546	1.0
13 	0	166.7169952	-25.16200066	10.26675224	0.003484482644	0.9909474254	1.0
[Head]
10 	0	96.17900085	16.84999847	5.204875946	4.56922102	-0.3347485065	1.0
11 	0	96.17900085	16.84999847	6.593943119	4.384428978	0.2259640843	1.0
12 	0	96.17900085	16.84999847	7.550931931	3.707421541	0.954639256	1.0
13 	0	96.17900085	16.84999847	8.311998367	2.803053141	1.760206699	1.0
[LeftEye]
10 	30.6760006	64.09500122	92.83599854	0	0	0	1.0
11 	30.6760006	64.09500122	92.83599854	0	0	0	1.0
12 	30.6760006	64.09500122	92.83599854	0	0	0	1.0
13 	30.6760006	64.09500122	92.83599854	0	0	0	1.0
[RightEye]
10 	-30.6760006	64.09500122	92.83499908	0	0	0	1.0
11 	-30.6760006	64.09500122	92.83499908	0	0	0	1.0
12 	-30.6760006	64.09500122	92.83499908	0	0	0	1.0
13 	-30.6760006	64.09500122	92.83499908	0	0	0	1.0
[LeftShoulder]
10 	45.70400238	109.4599991	-26.28000069	4.317697525	-15.15822983	-12.04519081	1.0
11 	45.70400238	109.4599991	-26.28000069	4.218788624	-14.81868267	-11.91780758	1.0
12 	45.70400238	109.4599991	-26.28000069	4.117492199	-14.47136593	-11.77813911	1.0
13 	45.70400238	109.4599991	-26.28000069	4.018219471	-14.13014412	-11.63885689	1.0
[LeftArm]
10 	105.923996	-5.24600029	-22.32099915	18.959589	-0.9321630597	-70.3793335	1.0
11 	105.923996	-5.24600029	-22.32099915	16.94010735	-0.5369610786	-69.97857666	1.0
12 	105.923996	-5.24600029	-22.32099915	14.57877731	-0.4480246305	-69.50910187	1.0
13 	105.923996	-5.24600029	-22.32099915	11.99041176	-0.5013727546	-69.00202179	1.0
[LeftForeArm]
10 	278.414978	-0.0009999999311	0	-4.572960734e-06	-4.99724865	-0.0002087477915	1.0
11 	278.414978	-0.0009999999311	0	5.35026345e-07	-6.23297739	-0.000212359213	1.0
12 	278.414978	-0.0009999999311	0	1.221270963e-06	-7.335522175	-0.0002104766027	1.0
13 	278.414978	-0.0009999999311	0	6.308875413e-07	-8.385285378	-0.0002070074988	1.0
[LeftHand]
10 	283.2879944	0	0	-36.88472748	-6.273139	-5.942131042	1.0
11 	283.2879944	0	0	-39.1196785	-7.541208267	-5.963245869	1.0
12 	283.2879944	0	0	-41.48776245	-8.70326519	-5.941196918	1.0
13 	283.2879944	0	0	-43.92596436	-9.831110001	-5.896315098	1.0
[LeftHandThumb1]
10 	24.6609993	-15.75	26.8239994	-7.419198036	-3.488127232	5.994022846	1.0
11 	24.6609993	-15.75	26.8239994	-9.968290329	-4.313705444	7.2363801	1.0
12 	24.6609993	-15.75	26.8239994	-12.62430191	-5.364454269	8.541670799	1.0
13 	24.6609993	-15.75	26.8239994	-15.34268856	-6.495677471	9.876677513	1.0
[LeftHandThumb2]
10 	32.29800034	-18.64699936	18.64699936	19.93699455	21.55826759	19.80142593	1.0
11 	32.29800034	-18.64699936	18.64699936	19.91457558	22.28258324	18.04392624	1.0
12 	32.29800034	-18.64699936	18.64699936	19.83341408	23.09049988	15.85603237	1.0
13 	32.29800034	-18.64699936	18.64699936	19.72803879	23.9257679	13.50750637	1.0
[LeftHandThumb3]
10 	26.52600098	-15.31499958	15.31499958	-12.1486311	3.410933018	6.480769157	1.0
11 	26.52600098	-15.31499958	15.31499958	-11.73486519	2.52453661	5.788137436	1.0
12 	26.52600098	-15.31499958	15.31499958	-11.18518448	1.421711445	4.608635902	1.0
13 	26.52600098	-15.31499958	15.31499958	-10.58157349	0.2352714092	3.226973295	1.0
[LeftHandThumb4]
10 	19.54599953	-11.28499985	11.28499985	0	0	0	1.0
11 	19.54599953	-11.28499985	11.28499985	0	0	0	1.0
12 	19.54599953	-11.28499985	11.28499985	0	0	0	1.0
13 	19.54599953	-11.28499985	11.28499985	0	0	0	1.0
[LeftHandIndex1]
10 	91.09299469	-5.170999527	22.60099792	0.2106716633	-3.695495605	1.538194895	1.0
11 	91.09299469	-5.170999527	22.60099792	0.2587713599	-4.364013195	4.247308731	1.0
12 	91.09299469	-5.170999527	22.60099792	0.3434246778	-5.251151085	7.686137676	1.0
13 	91.09299469	-5.170999527	22.60099792	0.4414730668	-6.194392681	11.37159348	1.0
[LeftHandIndex2]
10 	36.76399994	0	0	-0.2569556832	1.713743091	-17.05364227	1.0
11 	36.76399994	0	0	-0.2539177835	1.703805447	-16.95171738	1.0
12 	36.76399994	0	0	-0.2505286932	1.692622066	-16.83707237	1.0
13 	36.76399994	0	0	-0.2469210774	1.68066895	-16.71457291	1.0
[LeftHandIndex3]
10 	28.83100128	0	0	-0.05302261561	0.7855019569	-7.723266125	1.0
11 	28.83100128	0	0	-0.05177197978	0.776216805	-7.631408691	1.0
12 	28.83100128	0	0	-0.0505753085	0.767221868	-7.542453289	1.0
13 	28.83100128	0	0	-0.04935013503	0.7579341531	-7.450618267	1.0
[LeftHandIndex4]
10 	23.92700005	0	0	0	0	0	1.0
11 	23.92700005	0	0	0	0	0	1.0
12 	23.92700005	0	0	0	0	0	1.0
13 	23.92700005	0	0	0	0	0	1.0
[LeftHandMiddle1]
10 	95.33399963	0	0	-0.3143517375	0.2885605693	-8.006734848	1.0
11 	95.33399963	0	0	-0.2394471318	-0.08931626379	-6.624542236	1.0
12 	95.33399963	0	0	-0.1474778652	-0.5534027219	-4.79675436	1.0
13 	95.33399963	0	0	-0.05032868311	-1.032311559	-2.810934305	1.0
[LeftHandMiddle2]
10 	36.98199844	0	0	-0.267095089	1.746435404	-17.38942528	1.0
11 	36.98199844	0	0	-0.2668159902	1.745536804	-17.38018036	1.0
12 	36.98199844	0	0	-0.2660021484	1.742941737	-17.35351563	1.0
13 	36.98199844	0	0	-0.2649182081	1.739483595	-17.31798553	1.0
[LeftHandMiddle3]
10 	29.50900078	0	0	-0.2993922532	1.846346617	-18.41965485	1.0
11 	29.50900078	0	0	-0.2992357016	1.845879316	-18.414814	1.0
12 	29.50900078	0	0	-0.2985536456	1.843827605	-18.39360619	1.0
13 	29.50900078	0	0	-0.2975967228	1.840945601	-18.36382294	1.0
[LeftHandMiddle4]
10 	28.3390007	0	0	0	0	0	1.0
11 	28.3390007	0	0	0	0	0	1.0
12 	28.3390007	0	0	0	0	0	1.0
13 	28.3390007	0	0	0	0	0	1.0
[LeftHandRing1]
10 	91.04499817	-0.4390000105	-18.65100098	-0.8386150599	2.060852289	-16.39605713	1.0
11 	91.04499817	-0.4390000105	-18.65100098	-0.7744225264	1.973374844	-15.44184875	1.0
12 	91.04499817	-0.4390000105	-18.65100098	-0.679222703	1.92242384	-13.95489216	1.0
13 	91.04499817	-0.4390000105	-18.65100098	-0.5757823586	1.897814989	-12.32022762	1.0
[LeftHandRing2]
10 	31.54000092	0	0	-0.3850590289	2.085875034	-20.91612434	1.0
11 	31.54000092	0	0	-0.3895159364	2.097507	-21.03837013	1.0
12 	31.54000092	0	0	-0.3904834986	2.100366831	-21.06793785	1.0
13 	31.54000092	0	0	-0.3910823464	2.102233171	-21.08710098	1.0
[LeftHandRing3]
10 	29.37700081	0	0	-0.2837233543	1.798608422	-17.92666245	1.0
11 	29.37700081	0	0	-0.2875736654	1.810480118	-18.04911804	1.0
12 	29.37700081	0	0	-0.2882217467	1.812859297	-18.07326508	1.0
13 	29.37700081	0	0	-0.2884703875	1.813973904	-18.08440208	1.0
[LeftHandRing4]
10 	26.47500038	0	0	0	0	0	1.0
11 	26.47500038	0	0	0	0	0	1.0
12 	26.47500038	0	0	0	0	0	1.0
13 	26.47500038	0	0	0	0	0	1.0
[LeftHandPinky1]
10 	80.77799988	-4.887000084	-38.06099701	-1.716374159	3.745165586	-23.62959671	1.0
11 	80.77799988	-4.887000084	-38.06099701	-1.66803956	3.624275684	-22.84682655	1.0
12 	80.77799988	-4.887000084	-38.06099701	-1.594208598	3.551840544	-21.88314247	1.0
13 	80.77799988	-4.887000084	-38.06099701	-1.511838317	3.510562897	-20.89385986	1.0
[LeftHandPinky2]
10 	36	0	0	-0.2790652812	1.784173489	-17.77784538	1.0
11 	36	0	0	-0.2752376199	1.772210479	-17.65461922	1.0
12 	36	0	0	-0.2709563076	1.758666277	-17.51525497	1.0
13 	36	0	0	-0.2667784095	1.745393753	-17.3787365	1.0
[LeftHandPinky3]
10 	21.14200211	0	0	-0.2517303228	1.696599841	-16.87785721	1.0
11 	21.14200211	0	0	-0.248094067	1.684582829	-16.754673	1.0
12 	21.14200211	0	0	-0.2440220416	1.67096138	-16.61519051	1.0
13 	21.14200211	0	0	-0.2400473058	1.657609224	-16.47851372	1.0
[LeftHandPinky4]
10 	19.75699997	0	0	0	0	0	1.0
11 	19.75699997	0	0	0	0	0	1.0
12 	19.75699997	0	0	0	0	0	1.0
13 	19.75699997	0	0	0	0	0	1.0
[RightShoulder]
10 	-45.70000076	109.4620056	-26.28000069	5.111317635	14.17478275	15.72354603	1.0
11 	-45.70000076	109.4620056	-26.28000069	5.02924633	13.85309887	15.76433372	1.0
12 	-45.70000076	109.4620056	-26.28000069	4.949652195	13.52633476	15.86438274	1.0
13 	-45.70000076	109.4620056	-26.28000069	4.870525837	13.1971674	15.9824667	1.0
[RightArm]
10 	-105.9280014	-5.248000145	-22.32099915	32.95963287	1.258067608	59.91349792	1.0
11 	-105.9280014	-5.248000145	-22.32099915	31.27780533	0.9426507354	59.62646866	1.0
12 	-105.9280014	-5.248000145	-22.32099915	28.870224	0.624012351	59.34992981	1.0
13 	-105.9280014	-5.248000145	-22.32099915	26.06611633	0.3152067065	59.096035	1.0
[RightForeArm]
10 	-278.414978	0	0	2.316000973e-07	10.54985619	-7.280150385e-06	1.0
11 	-278.414978	0	0	2.489187182e-06	11.28769875	-1.330092573e-06	1.0
12 	-278.414978	0	0	2.113795063e-06	11.89941788	6.525334015e-07	1.0
13 	-278.414978	0	0	6.48324658e-07	12.43293667	1.560355486e-06	1.0
[RightHand]
10 	-283.2879944	0	0.0009999999311	-21.72490692	4.588357449	7.58876276	1.0
11 	-283.2879944	0	0.0009999999311	-23.71981239	5.961563587	6.859145641	1.0
12 	-283.2879944	0	0.0009999999311	-26.4822979	7.19103384	6.000739098	1.0
13 	-283.2879944	0	0.0009999999311	-29.55621529	8.397669792	5.116075039	1.0
[RightHandPinky1]
10 	-80.76699829	-4.885000229	-38.06000137	-1.817317486	-4.001055717	29.42880821	1.0
11 	-80.76699829	-4.885000229	-38.06000137	-2.124698639	-3.956836939	33.22442245	1.0
12 	-80.76699829	-4.885000229	-38.06000137	-2.026136398	-4.056642056	32.19641495	1.0
13 	-80.76699829	-4.885000229	-38.06000137	-1.793915629	-4.203411102	29.55984306	1.0
[RightHandPinky2]
10 	-36	0	0.0009999999311	-0.207408011	-1.371721029	17.21588326	1.0
11 	-36	0	0.0009999999311	-0.2235010713	-1.422640085	17.87558937	1.0
12 	-36	0	0.0009999999311	-0.2406369895	-1.47417295	18.54650688	1.0
13 	-36	0	0.0009999999311	-0.2588684857	-1.527711153	19.24521828	1.0
[RightHandPinky3]
10 	-21.14200211	0	0	-0.1863085777	-1.301644802	16.29214287	1.0
11 	-21.14200211	0	0	-0.2014434785	-1.352267027	16.94493103	1.0
12 	-21.14200211	0	0	-0.2178840041	-1.404407144	17.62030602	1.0
13 	-21.14200211	0	0	-0.2354778051	-1.458866596	18.32727432	1.0
[RightHandPinky4]
10 	-19.75699997	0	0	0	0	0	1.0
11 	-19.75699997	0	0	0	0	0	1.0
12 	-19.75699997	0	0	0	0	0	1.0
13 	-19.75699997	0	0	0	0	0	1.0
[RightHandRing1]
10 	-91.03599548	-0.4390000105	-18.65100098	-1.152005672	-2.369837761	22.0164566	1.0
11 	-91.03599548	-0.4390000105	-18.65100098	-1.348332763	-2.038707256	24.94467163	1.0
12 	-91.03599548	-0.4390000105	-18.65100098	-1.342387557	-1.44360733	24.94490051	1.0
13 	-91.03599548	-0.4390000105	-18.65100098	-1.272166371	-0.7341218591	23.99204254	1.0
[RightHandRing2]
10 	-31.54000092	0	0	-0.2965484858	-1.631982565	20.59552383	1.0
11 	-31.54000092	0	0	-0.3052760661	-1.655050755	20.90031433	1.0
12 	-31.54000092	0	0	-0.3115341663	-1.67158556	21.11875153	1.0
13 	-31.54000092	0	0	-0.3175389171	-1.687253118	21.32605171	1.0
[RightHandRing3]
10 	-29.37700081	0	0	-0.2159513831	-1.398932099	17.5486145	1.0
11 	-29.37700081	0	0	-0.2235313356	-1.422723889	17.85700798	1.0
12 	-29.37700081	0	0	-0.2290137857	-1.439919353	18.07995224	1.0
13 	-29.37700081	0	0	-0.2343010753	-1.456266522	18.29221344	1.0
[RightHandRing4]
10 	-26.47500038	0	0	0	0	0	1.0
11 	-26.47500038	0	0	0	0	0	1.0
12 	-26.47500038	0	0	0	0	0	1.0
13 	-26.47500038	0	0	0	0	0	1.0
[RightHandMiddle1]
10 	-95.32500458	0	0	-0.4369786084	-2.007475853	10.37868881	1.0
11 	-95.32500458	0	0	-0.464433223	-2.344261169	10.84519577	1.0
12 	-95.32500458	0	0	-0.3263038099	-2.404544115	7.962737083	1.0
13 	-95.32500458	0	0	-0.1332826316	-2.350941896	3.977331877	1.0
[RightHandMiddle2]
10 	-36.98199844	0	0	-0.2112659067	-1.384315133	17.35891533	1.0
11 	-36.98199844	0	0	-0.2094078809	-1.378119946	17.27897263	1.0
12 	-36.98199844	0	0	-0.2005564719	-1.348571897	16.89793968	1.0
13 	-36.98199844	0	0	-0.1890059263	-1.309980512	16.40034103	1.0
[RightHandMiddle3]
10 	-29.50900078	0	0	-0.2362918109	-1.463974476	18.36672592	1.0
11 	-29.50900078	0	0	-0.234277308	-1.457677364	18.2850666	1.0
12 	-29.50900078	0	0	-0.2248766422	-1.428184509	17.90266228	1.0
13 	-29.50900078	0	0	-0.2126274109	-1.389719009	17.40395164	1.0
[RightHandMiddle4]
10 	-28.3390007	0	0.0009999999311	0	0	0	1.0
11 	-28.3390007	0	0.0009999999311	0	0	0	1.0
12 	-28.3390007	0	0.0009999999311	0	0	0	1.0
13 	-28.3390007	0	0.0009999999311	0	0	0	1.0
[RightHandIndex1]
10 	-91.08300018	-5.167999744	22.60099792	0.6500053406	2.39887476	-3.416154385	1.0
11 	-91.08300018	-5.167999744	22.60099792	0.7885741591	1.656481743	-5.553431511	1.0
12 	-91.08300018	-5.167999744	22.60099792	0.9168949723	1.822477698	-10.34658337	1.0
13 	-91.08300018	-5.167999744	22.60099792	1.040902138	2.305462122	-15.96813774	1.0
[RightHandIndex2]
10 	-36.76399994	0	0	-0.1809965968	-1.283371687	16.05725479	1.0
11 	-36.76399994	0	0	-0.1634611934	-1.220701694	15.25336075	1.0
12 	-36.76399994	0	0	-0.1452318877	-1.149084687	14.34043026	1.0
13 	-36.76399994	0	0	-0.1268873513	-1.074565768	13.39248085	1.0
[RightHandIndex3]
10 	-28.83100128	0	0	-0.03167828172	-0.5415433049	6.70165205	1.0
11 	-28.83100128	0	0	-0.02454448119	-0.4766473174	5.89536953	1.0
12 	-28.83100128	0	0	-0.01819901727	-0.4029304385	4.981697559	1.0
13 	-28.83100128	0	0	-0.01221727114	-0.3263583779	4.033396721	1.0
[RightHandIndex4]
10 	-23.92700005	0	0	0	0	0	1.0
11 	-23.92700005	0	0	0	0	0	1.0
12 	-23.92700005	0	0	0	0	0	1.0
13 	-23.92700005	0	0	0	0	0	1.0
[RightHandThumb1]
10 	-24.64799881	-15.72700024	26.82600021	-1.401386499	10.42063713	-0.4133764207	1.0
11 	-24.64799881	-15.72700024	26.82600021	-2.188158274	13.64572144	0.5164204836	1.0
12 	-24.64799881	-15.72700024	26.82600021	-0.6736750007	16.75189972	0.7274655104	1.0
13 	-24.64799881	-15.72700024	26.82600021	1.554451227	19.84188843	0.6474653482	1.0
[RightHandThumb2]
10 	-32.29800034	-18.64699936	18.64699936	21.97387314	-25.88228607	-18.2918396	1.0
11 	-32.29800034	-18.64699936	18.64699936	21.81412125	-26.3554039	-16.5727272	1.0
12 	-32.29800034	-18.64699936	18.64699936	21.46540642	-27.00149918	-13.80602741	1.0
13 	-32.29800034	-18.64699936	18.64699936	21.04802132	-27.70256615	-10.67897129	1.0
[RightHandThumb3]
10 	-26.52600098	-15.31399918	15.31399918	-11.70106506	-2.229397774	-5.379043579	1.0
11 	-26.52600098	-15.31399918	15.31399918	-10.84577847	-0.9388167262	-2.964837074	1.0
12 	-26.52600098	-15.31399918	15.31399918	-9.891979218	0.4658236802	0.06259953976	1.0
13 	-26.52600098	-15.31399918	15.31399918	-8.912423134	1.891524196	3.314305544	1.0
[RightHandThumb4]
10 	-19.54599953	-11.28499985	11.28499985	0	0	0	1.0
11 	-19.54599953	-11.28499985	11.28499985	0	0	0	1.0
12 	-19.54599953	-11.28499985	11.28499985	0	0	0	1.0
13 	-19.54599953	-11.28499985	11.28499985	0	0	0	1.0
[LeftUpLeg]
10 	82.07800293	-67.51699829	-15.99599934	-6.891571045	16.59149361	8.28796196	1.0
11 	82.07800293	-67.51699829	-15.99599934	-6.722539425	16.69491768	8.544560432	1.0
12 	82.07800293	-67.51699829	-15.99599934	-6.856142521	16.87708855	8.949339867	1.0
13 	82.07800293	-67.51699829	-15.99599934	-7.142490387	17.09211731	9.419284821	1.0
[LeftLeg]
10 	0	-443.7049866	2.845999956	13.05752563	-0.1782966107	4.208312988	1.0
11 	0	-443.7049866	2.845999956	13.64108372	-0.8142525554	4.116914749	1.0
12 	0	-443.7049866	2.845999956	15.04853916	-1.539249301	4.005949974	1.0
13 	0	-443.7049866	2.845999956	16.86144066	-2.296821117	3.890619516	1.0
[LeftFoot]
10 	0	-444.2789917	-29.8219986	1.185364246	0.6664857864	-7.749688148	1.0
11 	0	-444.2789917	-29.8219986	0.74621135	0.521848917	-7.852036953	1.0
12 	0	-444.2789917	-29.8219986	-0.1309965998	0.06167650595	-7.927514553	1.0
13 	0	-444.2789917	-29.8219986	-1.215857863	-0.5475466847	-7.989359856	1.0
[LeftToeBase]
10 	0	-87.28699493	107.1060028	-4.838625908	5.615923328e-06	1.787584097e-06	1.0
11 	0	-87.28699493	107.1060028	-4.838592529	1.644514782e-06	1.405502644e-06	1.0
12 	0	-87.28699493	107.1060028	-4.884610653	5.230639886e-07	1.239262133e-06	1.0
13 	0	-87.28699493	107.1060028	-4.948652744	2.178033895e-07	1.036728577e-06	1.0
[RightUpLeg]
10 	-82.07800293	-67.51699829	-15.99599934	1.447409153	-10.69482708	3.127990723	1.0
11 	-82.07800293	-67.51699829	-15.99599934	1.808077931	-10.74591732	3.299741507	1.0
12 	-82.07800293	-67.51699829	-15.99599934	1.918289065	-10.77465343	3.580014229	1.0
13 	-82.07800293	-67.51699829	-15.99599934	1.900535941	-10.79904079	3.900459528	1.0
[RightLeg]
10 	0	-443.7049866	2.861999989	9.373841286	-9.465150833	-4.73730278	1.0
11 	0	-443.7049866	2.861999989	9.926719666	-9.389456749	-4.936682224	1.0
12 	0	-443.7049866	2.861999989	11.33110714	-9.241822243	-5.268784046	1.0
13 	0	-443.7049866	2.861999989	13.1564846	-9.049741745	-5.65275526	1.0
[RightFoot]
10 	0	-444.2770081	-29.83799934	-3.777001381	-1.824016929	3.382319927	1.0
11 	0	-444.2770081	-29.83799934	-4.078853607	-2.463491917	3.525876999	1.0
12 	0	-444.2770081	-29.83799934	-4.796935081	-3.318721056	3.831210613	1.0
13 	0	-444.2770081	-29.83799934	-5.729362011	-4.270549297	4.211327553	1.0
[RightToeBase]
10 	0	-87.28699493	107.1060028	-7.427222252	3.690670383e-06	-3.995396298e-07	1.0
11 	0	-87.28699493	107.1060028	-7.484835148	4.483466e-06	-4.207660425e-07	1.0
12 	0	-87.28699493	107.1060028	-7.51752758	5.722523383e-06	-4.984216275e-07	1.0
13 	0	-87.28699493	107.1060028	-7.541522503	6.904782367e-06	-5.294538141e-07	1.0
[EndOfFile]
